<?xml version="1.0" encoding="UTF-8" standalone="no"?>
<!DOCTYPE svg PUBLIC "-//W3C//DTD SVG 1.1//EN" "http://www.w3.org/Graphics/SVG/1.1/DTD/svg11.dtd">
<svg width="100%" height="100%" viewBox="0 0 350 50" version="1.1" xmlns="http://www.w3.org/2000/svg" xmlns:xlink="http://www.w3.org/1999/xlink" xml:space="preserve" xmlns:serif="http://www.serif.com/" style="fill-rule:evenodd;clip-rule:evenodd;stroke-linejoin:round;stroke-miterlimit:2;">
    <g transform="matrix(0.996878,0,0,0.926999,-32.7296,-50.8647)">
        <g transform="matrix(2.92313,0,0,2.92313,-262.037,-257.423)">
            <g transform="matrix(16.4207,0,0,16.4207,170.23,120.96)">
            </g>
            <text x="100.425px" y="120.96px" style="font-family:'BMDoHyeon-OTF', 'BM Dohyeon', sans-serif;font-size:16.421px;fill:white;">C<tspan x="112.544px 123.496px 134.252px 143.809px 154.597px 165.796px " y="120.96px 120.96px 120.96px 120.96px 120.96px 120.96px ">harbel</tspan></text>
        </g>
        <g transform="matrix(2.92313,0,0,2.92313,-48.9412,-253.798)">
            <g transform="matrix(8.21037,0,0,8.21037,141.001,120.96)">
            </g>
            <text x="100.425px" y="120.96px" style="font-family:'BMDoHyeon-OTF', 'BM Dohyeon', sans-serif;font-size:8.21px;fill:rgb(92,198,254);">G<tspan x="106.583px 112.059px 117.355px 122.634px 127.913px 133.291px 135.812px " y="120.96px 120.96px 120.96px 120.96px 120.96px 120.96px 120.96px ">hossain</tspan></text>
        </g>
    </g>
    <g transform="matrix(1,0,0,1,-12.4904,8.17014)">
        <g transform="matrix(1.07538,0,0,1,-26.2192,0)">
            <g transform="matrix(22.248,0,0,22.248,357.651,36.5972)">
            </g>
            <text x="347.817px" y="36.597px" style="font-family:'BMDoHyeon-OTF', 'BM Dohyeon', sans-serif;font-size:22.248px;fill:rgb(92,198,254);">&gt;</text>
        </g>
    </g>
</svg>
